# xmcd
#
# Track frame offsets: 
#        150
#        16142
#        35346
#        53932
#        75632
#        90657
#        110921
#        124958
#        143731
#        166357
#        185189
#        209605
#
# Disc length: 2828 seconds
#
# Revision: 0
# Processed by: cddbd v1.5.2PL0 Copyright (c) Steve Scherf et al.
# Submitted via: ExactAudioCopy v1.0b1
#
DISCID=ab0b0a0c
DTITLE=Brad Paisley - Christmas
DYEAR=2006
DGENRE=Country/Christmas
TTITLE0=Winter Wonderland
TTITLE1=Santa Looked A Lot Like Daddy
TTITLE2=I'll Be Home For Christmas
TTITLE3=Away In A Manger
TTITLE4=Penguin, James Penguin
TTITLE5=364 Days To Go
TTITLE6=Jingle Bells (instrumental)
TTITLE7=Silent Night
TTITLE8=Born On Christmas Day
TTITLE9=Silver Bells
TTITLE10=Kung Pao Buckaroo Holiday (Featuring The Kung Pao Buckaroos)
TTITLE11=Little Jimmy Dickens Outtake (Hidden Track)
EXTD=
EXTT0=
EXTT1=
EXTT2=
EXTT3=
EXTT4=
EXTT5=
EXTT6=
EXTT7=
EXTT8=
EXTT9=
EXTT10=
EXTT11=
PLAYORDER=
